<svg width="125" height="25" viewBox="0 0 125 25" fill="none" xmlns="http://www.w3.org/2000/svg">
<path d="M41 6H44.02C45.06 6 45.8467 6.24667 46.38 6.74C46.9267 7.23333 47.2 7.92 47.2 8.8V10C47.2 11.1333 46.7267 11.86 45.78 12.18C46.86 12.4733 47.4 13.2133 47.4 14.4V16.2C47.4 17.0933 47.1333 17.7867 46.6 18.28C46.0667 18.76 45.2733 19 44.22 19H41V6ZM46 16.2V14.4C46 13.9733 45.84 13.5867 45.52 13.24C45.2 12.88 44.7667 12.7 44.22 12.7H42.4V17.8H44.22C44.78 17.8 45.2133 17.6467 45.52 17.34C45.84 17.02 46 16.64 46 16.2ZM45.8 10V8.8C45.8 8.37333 45.64 8 45.32 7.68C45.0133 7.36 44.58 7.2 44.02 7.2H42.4V11.7H44.02C44.58 11.7 45.0133 11.5267 45.32 11.18C45.64 10.8333 45.8 10.44 45.8 10ZM57.5977 8.5V16.5C57.5977 17.3933 57.311 18.0867 56.7377 18.58C56.1777 19.06 55.331 19.3 54.1977 19.3C53.0777 19.3 52.231 19.06 51.6577 18.58C51.0843 18.0867 50.7977 17.3933 50.7977 16.5V8.5C50.7977 7.60667 51.0777 6.92 51.6377 6.44C52.211 5.94667 53.0577 5.7 54.1777 5.7C55.311 5.7 56.1643 5.94667 56.7377 6.44C57.311 6.92 57.5977 7.60667 57.5977 8.5ZM56.1977 16.5V8.5C56.1977 7.43333 55.531 6.9 54.1977 6.9C52.8643 6.9 52.1977 7.43333 52.1977 8.5V16.5C52.1977 17.5667 52.8643 18.1 54.1977 18.1C55.531 18.1 56.1977 17.5667 56.1977 16.5ZM67.793 8.5V16.5C67.793 17.3933 67.5063 18.0867 66.933 18.58C66.373 19.06 65.5263 19.3 64.393 19.3C63.273 19.3 62.4263 19.06 61.853 18.58C61.2796 18.0867 60.993 17.3933 60.993 16.5V8.5C60.993 7.60667 61.273 6.92 61.833 6.44C62.4063 5.94667 63.253 5.7 64.373 5.7C65.5063 5.7 66.3596 5.94667 66.933 6.44C67.5063 6.92 67.793 7.60667 67.793 8.5ZM66.393 16.5V8.5C66.393 7.43333 65.7263 6.9 64.393 6.9C63.0596 6.9 62.393 7.43333 62.393 8.5V16.5C62.393 17.5667 63.0596 18.1 64.393 18.1C65.7263 18.1 66.393 17.5667 66.393 16.5ZM72.9083 19H71.5083V6H72.9083V11.52L76.3883 6H77.9483L74.4083 11.6L78.1883 19H76.6483L73.5683 12.94L72.9083 14V19ZM86.9498 16.5C86.9498 18.3667 85.8232 19.3 83.5698 19.3C81.3165 19.3 80.1898 18.3667 80.1898 16.5V14.8H81.5898V16.58C81.5898 17.06 81.7565 17.4333 82.0898 17.7C82.4232 17.9667 82.9165 18.1 83.5698 18.1C84.2232 18.1 84.7165 17.9667 85.0498 17.7C85.3832 17.4333 85.5498 17.0733 85.5498 16.62C85.5498 16.1533 85.4965 15.7867 85.3898 15.52C85.2965 15.24 85.0965 14.9467 84.7898 14.64L81.2698 11.2C80.8565 10.7867 80.5698 10.3867 80.4098 10C80.2632 9.6 80.1898 9.1 80.1898 8.5C80.1898 7.60667 80.4632 6.92 81.0098 6.44C81.5698 5.94667 82.4098 5.7 83.5298 5.7C85.6765 5.7 86.7498 6.63333 86.7498 8.5V10.2H85.3498V8.42C85.3498 7.94 85.1898 7.56667 84.8698 7.3C84.5632 7.03333 84.0965 6.9 83.4698 6.9C82.8432 6.9 82.3698 7.03333 82.0498 7.3C81.7432 7.56667 81.5898 7.93333 81.5898 8.4C81.5898 8.86667 81.6365 9.23333 81.7298 9.5C81.8232 9.76667 82.0298 10.0467 82.3498 10.34L85.9298 13.78C86.3165 14.2067 86.5832 14.62 86.7298 15.02C86.8765 15.4067 86.9498 15.9 86.9498 16.5ZM90.2508 6H94.6508V7.2H91.6508V16.78C91.6508 17.1533 91.7441 17.4667 91.9308 17.72C92.1308 17.9733 92.4041 18.1 92.7508 18.1C93.1108 18.1 93.3841 17.98 93.5708 17.74C93.7574 17.4867 93.8508 17.1667 93.8508 16.78V14.4H95.2508V16.7C95.2508 17.54 95.0241 18.1867 94.5708 18.64C94.1308 19.08 93.5308 19.3 92.7708 19.3C92.0108 19.3 91.3974 19.08 90.9308 18.64C90.4774 18.1867 90.2508 17.54 90.2508 16.7V6ZM104.551 8.5V16.5C104.551 17.3933 104.264 18.0867 103.691 18.58C103.131 19.06 102.284 19.3 101.151 19.3C100.031 19.3 99.1841 19.06 98.6108 18.58C98.0374 18.0867 97.7508 17.3933 97.7508 16.5V8.5C97.7508 7.60667 98.0308 6.92 98.5908 6.44C99.1641 5.94667 100.011 5.7 101.131 5.7C102.264 5.7 103.117 5.94667 103.691 6.44C104.264 6.92 104.551 7.60667 104.551 8.5ZM103.151 16.5V8.5C103.151 7.43333 102.484 6.9 101.151 6.9C99.8174 6.9 99.1508 7.43333 99.1508 8.5V16.5C99.1508 17.5667 99.8174 18.1 101.151 18.1C102.484 18.1 103.151 17.5667 103.151 16.5ZM109.646 19H108.246V6H108.846L109.426 7.48C109.853 6.29333 110.533 5.7 111.466 5.7C113.053 5.7 113.846 6.56667 113.846 8.3V9.6H112.506V8.22C112.506 7.34 112.139 6.9 111.406 6.9C110.966 6.9 110.559 7.15333 110.186 7.66C109.826 8.16667 109.646 8.9 109.646 9.86V19ZM121.154 16.5V15.4H122.554V16.5C122.554 17.3933 122.281 18.0867 121.734 18.58C121.187 19.06 120.367 19.3 119.274 19.3C118.181 19.3 117.354 19.06 116.794 18.58C116.234 18.0867 115.954 17.3933 115.954 16.5V8.5C115.954 7.60667 116.227 6.92 116.774 6.44C117.321 5.94667 118.141 5.7 119.234 5.7C120.327 5.7 121.154 5.94667 121.714 6.44C122.274 6.92 122.554 7.60667 122.554 8.5V12.9H117.354V16.5C117.354 17.5667 117.987 18.1 119.254 18.1C120.521 18.1 121.154 17.5667 121.154 16.5ZM117.354 8.5V11.7H121.154V8.5C121.154 7.43333 120.521 6.9 119.254 6.9C117.987 6.9 117.354 7.43333 117.354 8.5Z" fill="#3D3C3C"/>
<path d="M14 6C14 4.93913 14.4214 3.92172 15.1716 3.17157C15.9217 2.42143 16.9391 2 18 2H26C26.2652 2 26.5196 2.10536 26.7071 2.29289C26.8946 2.48043 27 2.73478 27 3V19C27 19.2652 26.8946 19.5196 26.7071 19.7071C26.5196 19.8946 26.2652 20 26 20H18C16.9391 20 15.9217 20.4214 15.1716 21.1716C14.4214 21.9217 14 22.9391 14 24" stroke="#3D3C3C" stroke-width="1.5" stroke-linecap="round" stroke-linejoin="round"/>
<path d="M1 19C1 19.2652 1.10536 19.5196 1.29289 19.7071C1.48043 19.8946 1.73478 20 2 20H10C11.0609 20 12.0783 20.4214 12.8284 21.1716C13.5786 21.9217 14 22.9391 14 24V6C14 4.93913 13.5786 3.92172 12.8284 3.17157C12.0783 2.42143 11.0609 2 10 2H2C1.73478 2 1.48043 2.10536 1.29289 2.29289C1.10536 2.48043 1 2.73478 1 3V19Z" stroke="#3D3C3C" stroke-width="1.5" stroke-linecap="round" stroke-linejoin="round"/>
</svg>
