<svg width="26" height="25" viewBox="0 0 26 25" fill="none" xmlns="http://www.w3.org/2000/svg">
<path d="M25.6488 23.625C23.6725 20.21 20.57 17.8138 16.965 16.7975C18.7177 15.9066 20.1192 14.4513 20.9436 12.6664C21.7681 10.8814 21.9673 8.87086 21.5092 6.95884C21.0511 5.04681 19.9625 3.34479 18.4187 2.1272C16.875 0.909616 14.9661 0.247437 13 0.247437C11.0339 0.247437 9.12504 0.909616 7.5813 2.1272C6.03755 3.34479 4.94887 5.04681 4.4908 6.95884C4.03272 8.87086 4.23196 10.8814 5.05637 12.6664C5.88078 14.4513 7.28232 15.9066 9.035 16.7975C5.43 17.8125 2.32751 20.2088 0.351255 23.625C0.29699 23.7104 0.260552 23.8058 0.244136 23.9057C0.227719 24.0055 0.231662 24.1076 0.255727 24.2058C0.279792 24.3041 0.323482 24.3964 0.384169 24.4773C0.444855 24.5583 0.521285 24.6261 0.608859 24.6767C0.696433 24.7273 0.793341 24.7597 0.893755 24.7719C0.994168 24.7841 1.09601 24.7759 1.19316 24.7477C1.2903 24.7195 1.38075 24.672 1.45904 24.6079C1.53734 24.5439 1.60187 24.4646 1.64875 24.375C4.05 20.2263 8.29251 17.75 13 17.75C17.7075 17.75 21.95 20.2263 24.3513 24.375C24.3981 24.4646 24.4627 24.5439 24.541 24.6079C24.6193 24.672 24.7097 24.7195 24.8069 24.7477C24.904 24.7759 25.0058 24.7841 25.1063 24.7719C25.2067 24.7597 25.3036 24.7273 25.3912 24.6767C25.4787 24.6261 25.5552 24.5583 25.6158 24.4773C25.6765 24.3964 25.7202 24.3041 25.7443 24.2058C25.7683 24.1076 25.7723 24.0055 25.7559 23.9057C25.7395 23.8058 25.703 23.7104 25.6488 23.625ZM5.75001 9.00002C5.75001 7.5661 6.17521 6.16439 6.97185 4.97213C7.76849 3.77988 8.90079 2.85063 10.2255 2.30189C11.5503 1.75316 13.008 1.60958 14.4144 1.88932C15.8208 2.16907 17.1126 2.85956 18.1265 3.87349C19.1405 4.88742 19.831 6.17925 20.1107 7.58561C20.3904 8.99198 20.2469 10.4497 19.6981 11.7745C19.1494 13.0992 18.2201 14.2315 17.0279 15.0282C15.8356 15.8248 14.4339 16.25 13 16.25C11.0779 16.2477 9.23518 15.4831 7.87604 14.124C6.5169 12.7648 5.75232 10.9221 5.75001 9.00002Z" fill="#3D3C3C"/>
</svg>
