<svg width="26" height="21" viewBox="0 0 26 21" fill="none" xmlns="http://www.w3.org/2000/svg">
<path d="M10.2308 6.07324H15.7692" stroke="#3D3C3C" stroke-width="1.5" stroke-linecap="round" stroke-linejoin="round"/>
<path d="M24.7231 13.2617L19.6808 1.80399C19.1601 1.28891 18.4574 1 17.725 1C16.9926 1 16.2898 1.28891 15.7692 1.80399V14.8425" stroke="#3D3C3C" stroke-width="1.5" stroke-linecap="round" stroke-linejoin="round"/>
<path d="M10.2308 14.8425V1.80399C9.71015 1.28891 9.00735 1 8.27499 1C7.54263 1 6.83984 1.28891 6.31922 1.80399L1.27692 13.2617" stroke="#3D3C3C" stroke-width="1.5" stroke-linecap="round" stroke-linejoin="round"/>
<path d="M5.61538 19.4578C8.16439 19.4578 10.2308 17.3914 10.2308 14.8424C10.2308 12.2934 8.16439 10.2271 5.61538 10.2271C3.06638 10.2271 1 12.2934 1 14.8424C1 17.3914 3.06638 19.4578 5.61538 19.4578Z" stroke="#3D3C3C" stroke-width="1.5" stroke-linecap="round" stroke-linejoin="round"/>
<path d="M20.3846 19.4578C22.9336 19.4578 25 17.3914 25 14.8424C25 12.2934 22.9336 10.2271 20.3846 10.2271C17.8356 10.2271 15.7692 12.2934 15.7692 14.8424C15.7692 17.3914 17.8356 19.4578 20.3846 19.4578Z" stroke="#3D3C3C" stroke-width="1.5" stroke-linecap="round" stroke-linejoin="round"/>
</svg>
