<svg width="28" height="24" viewBox="0 0 28 24" fill="none" xmlns="http://www.w3.org/2000/svg">
<path d="M14 5C14 3.93913 14.4214 2.92172 15.1716 2.17157C15.9217 1.42143 16.9391 1 18 1H26C26.2652 1 26.5196 1.10536 26.7071 1.29289C26.8946 1.48043 27 1.73478 27 2V18C27 18.2652 26.8946 18.5196 26.7071 18.7071C26.5196 18.8946 26.2652 19 26 19H18C16.9391 19 15.9217 19.4214 15.1716 20.1716C14.4214 20.9217 14 21.9391 14 23" stroke="#3D3C3C" stroke-width="1.5" stroke-linecap="round" stroke-linejoin="round"/>
<path d="M1 18C1 18.2652 1.10536 18.5196 1.29289 18.7071C1.48043 18.8946 1.73478 19 2 19H10C11.0609 19 12.0783 19.4214 12.8284 20.1716C13.5786 20.9217 14 21.9391 14 23V5C14 3.93913 13.5786 2.92172 12.8284 2.17157C12.0783 1.42143 11.0609 1 10 1H2C1.73478 1 1.48043 1.10536 1.29289 1.29289C1.10536 1.48043 1 1.73478 1 2V18Z" stroke="#3D3C3C" stroke-width="1.5" stroke-linecap="round" stroke-linejoin="round"/>
</svg>
