<svg width="28" height="28" viewBox="0 0 28 28" fill="none" xmlns="http://www.w3.org/2000/svg">
<path d="M4.8125 23.1875C3.6625 22.0375 4.425 19.625 3.8375 18.2125C3.25 16.8 1 15.5625 1 14C1 12.4375 3.225 11.25 3.8375 9.7875C4.45 8.325 3.6625 5.9625 4.8125 4.8125C5.9625 3.6625 8.375 4.425 9.7875 3.8375C11.2 3.25 12.4375 1 14 1C15.5625 1 16.75 3.225 18.2125 3.8375C19.675 4.45 22.0375 3.6625 23.1875 4.8125C24.3375 5.9625 23.575 8.375 24.1625 9.7875C24.75 11.2 27 12.4375 27 14C27 15.5625 24.775 16.75 24.1625 18.2125C23.55 19.675 24.3375 22.0375 23.1875 23.1875C22.0375 24.3375 19.625 23.575 18.2125 24.1625C16.8 24.75 15.5625 27 14 27C12.4375 27 11.25 24.775 9.7875 24.1625C8.325 23.55 5.9625 24.3375 4.8125 23.1875Z" stroke="#3D3C3C" stroke-width="1.5" stroke-linecap="round" stroke-linejoin="round"/>
<path d="M14 8V15" stroke="#3D3C3C" stroke-width="1.5" stroke-linecap="round" stroke-linejoin="round"/>
<path d="M15.1875 19.5C15.1875 20.1558 14.6558 20.6875 14 20.6875C13.3442 20.6875 12.8125 20.1558 12.8125 19.5C12.8125 18.8442 13.3442 18.3125 14 18.3125C14.6558 18.3125 15.1875 18.8442 15.1875 19.5Z" fill="black" stroke="#3D3C3C" stroke-width="0.125"/>
</svg>
