<svg width="24" height="25" viewBox="0 0 24 25" fill="none" xmlns="http://www.w3.org/2000/svg">
<path d="M2.47 11.53C2.33752 11.3878 2.2654 11.1998 2.26883 11.0055C2.27225 10.8112 2.35097 10.6258 2.48838 10.4884C2.62579 10.351 2.81118 10.2723 3.00548 10.2688C3.19978 10.2654 3.38783 10.3375 3.53 10.47L11.25 18.1887V1C11.25 0.801088 11.329 0.610322 11.4697 0.46967C11.6103 0.329018 11.8011 0.25 12 0.25C12.1989 0.25 12.3897 0.329018 12.5303 0.46967C12.671 0.610322 12.75 0.801088 12.75 1V18.1887L20.47 10.47C20.6122 10.3375 20.8002 10.2654 20.9945 10.2688C21.1888 10.2723 21.3742 10.351 21.5116 10.4884C21.649 10.6258 21.7277 10.8112 21.7312 11.0055C21.7346 11.1998 21.6625 11.3878 21.53 11.53L12.53 20.53C12.3894 20.6705 12.1988 20.7493 12 20.7493C11.8012 20.7493 11.6106 20.6705 11.47 20.53L2.47 11.53ZM23 23.25H1C0.801088 23.25 0.610322 23.329 0.46967 23.4697C0.329018 23.6103 0.25 23.8011 0.25 24C0.25 24.1989 0.329018 24.3897 0.46967 24.5303C0.610322 24.671 0.801088 24.75 1 24.75H23C23.1989 24.75 23.3897 24.671 23.5303 24.5303C23.671 24.3897 23.75 24.1989 23.75 24C23.75 23.8011 23.671 23.6103 23.5303 23.4697C23.3897 23.329 23.1989 23.25 23 23.25Z" fill="#3D3C3C"/>
</svg>
