<svg width="30" height="20" viewBox="0 0 30 20" fill="none" xmlns="http://www.w3.org/2000/svg">
<path d="M29.4348 9.44625C29.3923 9.34875 28.3523 7.0425 26.0298 4.72C23.8748 2.5675 20.1723 0 14.7498 0C9.32732 0 5.62482 2.5675 3.46982 4.72C1.14732 7.0425 0.107318 9.345 0.0648175 9.44625C0.022083 9.54225 0 9.64616 0 9.75125C0 9.85633 0.022083 9.96025 0.0648175 10.0562C0.107318 10.1525 1.14732 12.4587 3.46982 14.7812C5.62482 16.9338 9.32732 19.5 14.7498 19.5C20.1723 19.5 23.8748 16.9338 26.0298 14.7812C28.3523 12.4587 29.3923 10.1562 29.4348 10.0562C29.4776 9.96025 29.4996 9.85633 29.4996 9.75125C29.4996 9.64616 29.4776 9.54225 29.4348 9.44625ZM14.7498 18C10.8273 18 7.40232 16.5725 4.56857 13.7588C3.38066 12.5782 2.37544 11.2271 1.58607 9.75C2.37522 8.27316 3.38047 6.92243 4.56857 5.7425C7.40232 2.9275 10.8273 1.5 14.7498 1.5C18.6723 1.5 22.0973 2.9275 24.9311 5.7425C26.1192 6.92243 27.1244 8.27316 27.9136 9.75C27.1173 11.2762 23.1248 18 14.7498 18ZM14.7498 4C13.6126 4 12.5009 4.33723 11.5553 4.96905C10.6097 5.60087 9.87271 6.49889 9.43751 7.54957C9.00231 8.60025 8.88844 9.75638 9.1103 10.8718C9.33217 11.9872 9.8798 13.0117 10.684 13.8159C11.4881 14.62 12.5127 15.1677 13.628 15.3895C14.7434 15.6114 15.8996 15.4975 16.9502 15.0623C18.0009 14.6271 18.8989 13.8901 19.5308 12.9445C20.1626 11.9989 20.4998 10.8872 20.4998 9.75C20.4978 8.22561 19.8914 6.76423 18.8135 5.68633C17.7356 4.60842 16.2742 4.00198 14.7498 4ZM14.7498 14C13.9092 14 13.0876 13.7507 12.3886 13.2837C11.6897 12.8168 11.145 12.153 10.8233 11.3764C10.5017 10.5998 10.4175 9.74529 10.5815 8.92087C10.7455 8.09645 11.1502 7.33917 11.7446 6.7448C12.339 6.15042 13.0963 5.74565 13.9207 5.58166C14.7451 5.41768 15.5996 5.50184 16.3762 5.82351C17.1528 6.14518 17.8166 6.68992 18.2836 7.38883C18.7506 8.08774 18.9998 8.90943 18.9998 9.75C18.9998 10.8772 18.552 11.9582 17.755 12.7552C16.958 13.5522 15.877 14 14.7498 14Z" fill="#3D3C3C"/>
</svg>
