<svg width="19" height="28" viewBox="0 0 19 28" fill="none" xmlns="http://www.w3.org/2000/svg">
<path d="M13.75 18C16.0972 18 18 16.0972 18 13.75C18 11.4028 16.0972 9.5 13.75 9.5C11.4028 9.5 9.5 11.4028 9.5 13.75C9.5 16.0972 11.4028 18 13.75 18Z" stroke="#676767" stroke-width="1.5" stroke-linecap="round" stroke-linejoin="round"/>
<path d="M9.5 9.5V1H5.25C4.12283 1 3.04183 1.44777 2.2448 2.2448C1.44777 3.04183 1 4.12283 1 5.25C1 6.37717 1.44777 7.45817 2.2448 8.2552C3.04183 9.05223 4.12283 9.5 5.25 9.5H9.5Z" stroke="#676767" stroke-width="1.5" stroke-linecap="round" stroke-linejoin="round"/>
<path d="M9.5 18V9.5H5.25C4.12283 9.5 3.04183 9.94777 2.2448 10.7448C1.44777 11.5418 1 12.6228 1 13.75C1 14.8772 1.44777 15.9582 2.2448 16.7552C3.04183 17.5522 4.12283 18 5.25 18H9.5Z" stroke="#676767" stroke-width="1.5" stroke-linecap="round" stroke-linejoin="round"/>
<path d="M9.5 9.5V1H13.75C14.8772 1 15.9582 1.44777 16.7552 2.2448C17.5522 3.04183 18 4.12283 18 5.25C18 6.37717 17.5522 7.45817 16.7552 8.2552C15.9582 9.05223 14.8772 9.5 13.75 9.5H9.5Z" stroke="#676767" stroke-width="1.5" stroke-linecap="round" stroke-linejoin="round"/>
<path d="M9.5 18V22.25C9.5 23.0906 9.25074 23.9123 8.78375 24.6112C8.31675 25.3101 7.65299 25.8548 6.87641 26.1765C6.09982 26.4982 5.24529 26.5823 4.42087 26.4183C3.59645 26.2543 2.83917 25.8496 2.2448 25.2552C1.65042 24.6608 1.24565 23.9036 1.08166 23.0791C0.917677 22.2547 1.00184 21.4002 1.32351 20.6236C1.64519 19.847 2.18992 19.1832 2.88883 18.7163C3.58774 18.2493 4.40943 18 5.25 18H9.5Z" stroke="#676767" stroke-width="1.5" stroke-linecap="round" stroke-linejoin="round"/>
</svg>
