<svg width="30" height="23" viewBox="0 0 30 23" fill="none" xmlns="http://www.w3.org/2000/svg">
<path d="M1 21.771V2.09321C1 1.80327 1.11518 1.52521 1.32019 1.32019C1.52521 1.11518 1.80327 1 2.09321 1H9.37674C9.61312 1.00097 9.84298 1.07759 10.0327 1.21864L13.8316 4.061C14.0213 4.20205 14.2511 4.27867 14.4875 4.27964H23.9575C24.2474 4.27964 24.5255 4.39482 24.7305 4.59983C24.9355 4.80485 25.0507 5.08291 25.0507 5.37285V8.65249" stroke="#3D3C3C" stroke-width="2" stroke-linecap="round" stroke-linejoin="round"/>
<path d="M1 21.771L5.09955 11.5221C5.1795 11.3195 5.31887 11.1459 5.49934 11.0239C5.67982 10.902 5.89296 10.8375 6.11077 10.8389H12.6974C12.9104 10.8366 13.1186 10.7751 13.2986 10.6612L16.0317 8.83011C16.2117 8.71625 16.4199 8.65474 16.6329 8.65247H27.9067C28.0796 8.65245 28.25 8.69343 28.4039 8.77204C28.5579 8.85065 28.691 8.96466 28.7924 9.10469C28.8937 9.24472 28.9604 9.4068 28.987 9.57761C29.0136 9.74842 28.9993 9.9231 28.9453 10.0873L25.0507 21.771H1Z" stroke="#3D3C3C" stroke-width="2" stroke-linecap="round" stroke-linejoin="round"/>
</svg>
