<svg width="24" height="27" viewBox="0 0 24 27" fill="none" xmlns="http://www.w3.org/2000/svg">
<path d="M6.5 26C6.89443 26.0017 7.28528 25.9252 7.65 25.775C8.01473 25.6248 8.3461 25.4039 8.62501 25.125C8.90391 24.8461 9.12483 24.5147 9.27501 24.15C9.42519 23.7853 9.50165 23.3944 9.5 23V17" stroke="#676767" stroke-width="1.5" stroke-linecap="round" stroke-linejoin="round"/>
<path d="M17.5 26C17.1056 26.0017 16.7147 25.9252 16.35 25.775C15.9853 25.6248 15.6539 25.4039 15.375 25.125C15.0961 24.8461 14.8752 24.5147 14.725 24.15C14.5748 23.7853 14.4984 23.3944 14.5 23V17" stroke="#676767" stroke-width="1.5" stroke-linecap="round" stroke-linejoin="round"/>
<path d="M15 17H17C17.3944 16.9984 17.7853 17.0748 18.15 17.225C18.5147 17.3752 18.8461 17.5961 19.125 17.875C19.4039 18.1539 19.6248 18.4853 19.775 18.85C19.9252 19.2147 20.0017 19.6056 20 20V21C19.9983 21.3945 20.0748 21.7853 20.225 22.15C20.3752 22.5148 20.5961 22.8461 20.875 23.125C21.1539 23.4039 21.4853 23.6249 21.85 23.775C22.2147 23.9252 22.6056 24.0017 23 24" stroke="#676767" stroke-width="1.5" stroke-linecap="round" stroke-linejoin="round"/>
<path d="M9 17H7C6.60557 16.9984 6.21472 17.0748 5.85 17.225C5.48527 17.3752 5.1539 17.5961 4.87499 17.875C4.59609 18.1539 4.37517 18.4853 4.22499 18.85C4.07481 19.2147 3.99835 19.6056 4 20V21C4.00165 21.3945 3.92519 21.7853 3.77501 22.15C3.62483 22.5148 3.40391 22.8461 3.12501 23.125C2.8461 23.4039 2.51473 23.6249 2.15 23.775C1.78528 23.9252 1.39443 24.0017 1 24" stroke="#676767" stroke-width="1.5" stroke-linecap="round" stroke-linejoin="round"/>
<path d="M9.975 4C9.38752 3.08063 8.57806 2.32394 7.62125 1.79966C6.66443 1.27537 5.59104 1.00037 4.5 1C4.01488 1.83972 3.72379 2.77735 3.64809 3.74417C3.57239 4.711 3.71399 5.68251 4.0625 6.5875C3.37901 7.59507 3.00929 8.78252 3 10V11C3 12.5913 3.63214 14.1174 4.75736 15.2426C5.88258 16.3679 7.4087 17 9 17H15C16.5913 17 18.1174 16.3679 19.2426 15.2426C20.3679 14.1174 21 12.5913 21 11V10C20.9907 8.78252 20.621 7.59507 19.9375 6.5875C20.286 5.68251 20.4276 4.711 20.3519 3.74417C20.2762 2.77735 19.9851 1.83972 19.5 1C18.409 1.00037 17.3356 1.27537 16.3787 1.79966C15.4219 2.32394 14.6125 3.08063 14.025 4H9.975Z" stroke="#676767" stroke-width="1.5" stroke-linecap="round" stroke-linejoin="round"/>
</svg>
