<svg width="22" height="28" viewBox="0 0 22 28" fill="none" xmlns="http://www.w3.org/2000/svg">
<path d="M11 6.25C10.0605 6.25 9.14217 6.52858 8.36104 7.05052C7.57991 7.57246 6.97109 8.3143 6.61157 9.18225C6.25206 10.0502 6.15799 11.0053 6.34127 11.9267C6.52455 12.8481 6.97694 13.6945 7.64124 14.3588C8.30554 15.0231 9.15191 15.4754 10.0733 15.6587C10.9947 15.842 11.9498 15.7479 12.8177 15.3884C13.6857 15.0289 14.4275 14.4201 14.9495 13.639C15.4714 12.8578 15.75 11.9395 15.75 11C15.75 9.74022 15.2496 8.53204 14.3588 7.64124C13.468 6.75045 12.2598 6.25 11 6.25ZM11 14.25C10.3572 14.25 9.72886 14.0594 9.1944 13.7023C8.65994 13.3452 8.24338 12.8376 7.99739 12.2437C7.75141 11.6499 7.68705 10.9964 7.81245 10.366C7.93785 9.73552 8.24738 9.15642 8.7019 8.7019C9.15642 8.24738 9.73552 7.93785 10.366 7.81245C10.9964 7.68705 11.6499 7.75141 12.2437 7.99739C12.8376 8.24338 13.3452 8.65994 13.7023 9.1944C14.0594 9.72886 14.25 10.3572 14.25 11C14.25 11.862 13.9076 12.6886 13.2981 13.2981C12.6886 13.9076 11.862 14.25 11 14.25ZM11 0.25C8.14994 0.253308 5.41756 1.38696 3.40226 3.40226C1.38696 5.41756 0.253308 8.14994 0.25 11C0.25 14.8638 2.0425 18.9675 5.43375 22.8675C6.96439 24.6364 8.68707 26.2295 10.57 27.6175C10.696 27.7057 10.8462 27.753 11 27.753C11.1538 27.753 11.304 27.7057 11.43 27.6175C13.3129 26.2295 15.0356 24.6364 16.5662 22.8675C19.9575 18.9675 21.75 14.8675 21.75 11C21.7467 8.14994 20.613 5.41756 18.5977 3.40226C16.5824 1.38696 13.8501 0.253308 11 0.25ZM11 26.0637C9.125 24.6162 1.75 18.4525 1.75 11C1.75 8.54675 2.72455 6.19397 4.45926 4.45926C6.19397 2.72455 8.54675 1.75 11 1.75C13.4533 1.75 15.806 2.72455 17.5407 4.45926C19.2754 6.19397 20.25 8.54675 20.25 11C20.25 18.4525 12.875 24.6162 11 26.0637Z" fill="#3D3C3C"/>
</svg>
