<svg width="30" height="22" viewBox="0 0 30 22" fill="none" xmlns="http://www.w3.org/2000/svg">
<path d="M27.07 7.97625C25.6787 7.21875 23.8088 6.67375 21.75 6.4175V5.5C21.75 3.985 20.5525 2.6125 18.375 1.63375C16.395 0.74125 13.775 0.25 11 0.25C8.225 0.25 5.605 0.74125 3.625 1.63375C1.4475 2.6125 0.25 3.985 0.25 5.5V10.5C0.25 12.015 1.4475 13.3875 3.625 14.3662C4.93625 14.9562 6.52625 15.3663 8.25 15.5825V16.5C8.25 18.015 9.4475 19.3875 11.625 20.3662C13.605 21.2587 16.225 21.75 19 21.75C21.775 21.75 24.395 21.2587 26.375 20.3662C28.5487 19.3875 29.75 18.015 29.75 16.5V11.5C29.75 10.1687 28.7987 8.9175 27.07 7.97625ZM26.3525 9.29375C27.5763 9.96 28.25 10.75 28.25 11.5C28.25 13.2738 24.4513 15.25 19 15.25C18.1136 15.2505 17.228 15.1946 16.3487 15.0825C17.0417 14.8966 17.7192 14.6571 18.375 14.3662C20.5487 13.3875 21.75 12.015 21.75 10.5V7.92875C23.55 8.17 25.1625 8.645 26.3525 9.29375ZM12.52 14.1975C12.03 14.2312 11.52 14.25 11 14.25C10.3375 14.25 9.7 14.22 9.09 14.1663C9.07461 14.165 9.05914 14.165 9.04375 14.1663C8.59625 14.125 8.16875 14.07 7.75 14.0037V10.515C8.82613 10.6727 9.91238 10.7512 11 10.75C12.0876 10.7512 13.1739 10.6727 14.25 10.515V14C13.7075 14.0863 13.1362 14.1525 12.5387 14.195L12.52 14.1975ZM20.25 8.23625V10.5C20.25 11.6925 18.5312 12.975 15.75 13.6887V10.2312C16.6508 10.0279 17.5298 9.73823 18.375 9.36625C19.0473 9.07428 19.6778 8.69429 20.25 8.23625ZM11 1.75C16.4513 1.75 20.25 3.72625 20.25 5.5C20.25 7.27375 16.4513 9.25 11 9.25C5.54875 9.25 1.75 7.27375 1.75 5.5C1.75 3.72625 5.54875 1.75 11 1.75ZM1.75 10.5V8.23625C2.32248 8.69254 2.95299 9.07084 3.625 9.36125C4.47019 9.73323 5.34925 10.0229 6.25 10.2262V13.6838C3.46875 12.975 1.75 11.6925 1.75 10.5ZM9.75 16.5V15.715C10.1625 15.7375 10.5787 15.75 11 15.75C11.4925 15.75 11.9783 15.7346 12.4575 15.7038C13.0438 15.9153 13.6424 16.091 14.25 16.23V19.6887C11.4688 18.975 9.75 17.6925 9.75 16.5ZM15.75 20V16.5125C16.8261 16.6711 17.9123 16.7504 19 16.75C20.0876 16.7512 21.1739 16.6727 22.25 16.515V20C20.0962 20.3333 17.9038 20.3333 15.75 20ZM23.75 19.6887V16.2313C24.6508 16.0279 25.5298 15.7382 26.375 15.3662C27.047 15.0758 27.6775 14.6975 28.25 14.2412V16.5C28.25 17.6925 26.5312 18.975 23.75 19.6887Z" fill="#3D3C3C"/>
</svg>
