<svg width="26" height="26" viewBox="0 0 26 26" fill="none" xmlns="http://www.w3.org/2000/svg">
<path d="M22.015 3.98378C20.8311 2.79983 19.4255 1.86068 17.8786 1.21993C16.3317 0.579179 14.6737 0.24939 12.9994 0.24939C9.61786 0.24939 6.37485 1.59269 3.98375 3.98378C1.59266 6.37488 0.249359 9.61789 0.249359 12.9994C0.249359 16.3809 1.59266 19.6239 3.98375 22.015C6.37485 24.4061 9.61786 25.7494 12.9994 25.7494C16.3809 25.7494 19.6239 24.4061 22.015 22.015C24.4061 19.6239 25.7494 16.3809 25.7494 12.9994C25.7494 9.61789 24.4061 6.37488 22.015 3.98378ZM20.955 20.955C19.3817 22.5284 17.3771 23.5998 15.1948 24.0339C13.0125 24.468 10.7505 24.2452 8.69488 23.3937C6.63922 22.5422 4.88222 21.1002 3.64606 19.2502C2.4099 17.4001 1.7501 15.2251 1.7501 13C1.7501 10.775 2.4099 8.59993 3.64606 6.74988C4.88222 4.89983 6.63922 3.45789 8.69488 2.6064C10.7505 1.75491 13.0125 1.53212 15.1948 1.96619C17.3771 2.40026 19.3817 3.47171 20.955 5.04503C23.0618 7.15644 24.2449 10.0173 24.2449 13C24.2449 15.9827 23.0618 18.8436 20.955 20.955ZM12.53 12.47C12.6705 12.6107 12.7493 12.8013 12.7493 13C12.7493 13.1988 12.6705 13.3894 12.53 13.53L8.53 17.53C8.38783 17.6625 8.19978 17.7346 8.00548 17.7312C7.81118 17.7278 7.62579 17.6491 7.48838 17.5117C7.35097 17.3742 7.27226 17.1889 7.26883 16.9946C7.2654 16.8003 7.33752 16.6122 7.47 16.47L10.9388 13L7.47 9.53003C7.33752 9.38786 7.2654 9.19981 7.26883 9.00551C7.27226 8.81121 7.35097 8.62583 7.48838 8.48841C7.62579 8.351 7.81118 8.27229 8.00548 8.26886C8.19978 8.26543 8.38783 8.33755 8.53 8.47003L12.53 12.47ZM19.53 12.47C19.6705 12.6107 19.7493 12.8013 19.7493 13C19.7493 13.1988 19.6705 13.3894 19.53 13.53L15.53 17.53C15.3878 17.6625 15.1998 17.7346 15.0055 17.7312C14.8112 17.7278 14.6258 17.6491 14.4884 17.5117C14.351 17.3742 14.2723 17.1889 14.2688 16.9946C14.2654 16.8003 14.3375 16.6122 14.47 16.47L17.9388 13L14.47 9.53003C14.3375 9.38786 14.2654 9.19981 14.2688 9.00551C14.2723 8.81121 14.351 8.62583 14.4884 8.48841C14.6258 8.351 14.8112 8.27229 15.0055 8.26886C15.1998 8.26543 15.3878 8.33755 15.53 8.47003L19.53 12.47Z" fill="#3D3C3C"/>
</svg>
