<svg width="28" height="25" viewBox="0 0 28 25" fill="none" xmlns="http://www.w3.org/2000/svg">
<path d="M23.75 23.75C25.5449 23.75 27 22.2949 27 20.5C27 18.7051 25.5449 17.25 23.75 17.25C21.9551 17.25 20.5 18.7051 20.5 20.5C20.5 22.2949 21.9551 23.75 23.75 23.75Z" stroke="#3D3C3C" stroke-width="2" stroke-linecap="round" stroke-linejoin="round"/>
<path d="M6.41667 1H19.4167C20.5659 1 21.6681 1.45655 22.4808 2.2692C23.2935 3.08186 23.75 4.18406 23.75 5.33333C23.75 6.48261 23.2935 7.58481 22.4808 8.39746C21.6681 9.21012 20.5659 9.66667 19.4167 9.66667H6.41667C4.98008 9.66667 3.60233 10.2373 2.5865 11.2532C1.57068 12.269 1 13.6467 1 15.0833C1 16.5199 1.57068 17.8977 2.5865 18.9135C3.60233 19.9293 4.98008 20.5 6.41667 20.5H20.5" stroke="#3D3C3C" stroke-width="2" stroke-linecap="round" stroke-linejoin="round"/>
</svg>
