<svg width="25" height="25" viewBox="0 0 25 25" fill="none" xmlns="http://www.w3.org/2000/svg">
<path d="M24.2375 6.34753L18.6513 0.761283C18.4888 0.598762 18.2958 0.469842 18.0835 0.381885C17.8712 0.293928 17.6436 0.248657 17.4138 0.248657C17.1839 0.248657 16.9563 0.293928 16.744 0.381885C16.5317 0.469842 16.3388 0.598762 16.1763 0.761283L0.762503 16.1763C0.599671 16.3386 0.470557 16.5314 0.382599 16.7438C0.294641 16.9562 0.249576 17.1839 0.250003 17.4138V23C0.250003 23.4642 0.434378 23.9093 0.762566 24.2375C1.09075 24.5657 1.53587 24.75 2 24.75H7.58625C7.81613 24.7505 8.04383 24.7054 8.25621 24.6174C8.4686 24.5295 8.66148 24.4004 8.82375 24.2375L24.2375 8.82253C24.4 8.66003 24.5289 8.4671 24.6169 8.25477C24.7049 8.04244 24.7501 7.81486 24.7501 7.58503C24.7501 7.35521 24.7049 7.12763 24.6169 6.9153C24.5289 6.70297 24.4 6.51004 24.2375 6.34753ZM7.7625 23.1763C7.71583 23.2232 7.65245 23.2498 7.58625 23.25H2C1.9337 23.25 1.87011 23.2237 1.82323 23.1768C1.77634 23.1299 1.75 23.0663 1.75 23V17.4138C1.75028 17.3476 1.7768 17.2842 1.82375 17.2375L13 6.06003L18.9388 12L7.7625 23.1763ZM23.1763 7.76253L20 10.9388L14.0613 5.00003L17.2375 1.82253C17.2607 1.79929 17.2883 1.78085 17.3186 1.76827C17.349 1.75569 17.3815 1.74921 17.4144 1.74921C17.4472 1.74921 17.4798 1.75569 17.5101 1.76827C17.5405 1.78085 17.568 1.79929 17.5913 1.82253L23.1763 7.40878C23.1995 7.432 23.2179 7.45957 23.2305 7.48992C23.2431 7.52027 23.2496 7.5528 23.2496 7.58566C23.2496 7.61851 23.2431 7.65104 23.2305 7.68139C23.2179 7.71174 23.1995 7.73932 23.1763 7.76253Z" fill="#3D3C3C"/>
</svg>
