<svg width="29" height="20" viewBox="0 0 29 20" fill="none" xmlns="http://www.w3.org/2000/svg">
<path d="M4.5 10.75C4.5 10.9489 4.42098 11.1397 4.28033 11.2803C4.13968 11.421 3.94891 11.5 3.75 11.5H0.75C0.551088 11.5 0.360322 11.421 0.21967 11.2803C0.0790175 11.1397 0 10.9489 0 10.75C0 10.5511 0.0790175 10.3603 0.21967 10.2197C0.360322 10.079 0.551088 10 0.75 10H2V1.5H0.75C0.551088 1.5 0.360322 1.42098 0.21967 1.28033C0.0790175 1.13968 0 0.948915 0 0.750002C0 0.55109 0.0790175 0.360324 0.21967 0.219672C0.360322 0.0790197 0.551088 2.20816e-06 0.75 2.20816e-06H2.75C2.87701 -0.000305964 3.00202 0.0316471 3.11331 0.0928653C3.22459 0.154083 3.31851 0.242561 3.38625 0.350002L7.75 7.335L12.1138 0.352502C12.1812 0.244597 12.275 0.155626 12.3863 0.0939592C12.4976 0.0322927 12.6228 -4.0503e-05 12.75 2.20816e-06H14.75C14.9489 2.20816e-06 15.1397 0.0790197 15.2803 0.219672C15.421 0.360324 15.5 0.55109 15.5 0.750002C15.5 0.948915 15.421 1.13968 15.2803 1.28033C15.1397 1.42098 14.9489 1.5 14.75 1.5H13.5V10H14.75C14.9489 10 15.1397 10.079 15.2803 10.2197C15.421 10.3603 15.5 10.5511 15.5 10.75C15.5 10.9489 15.421 11.1397 15.2803 11.2803C15.1397 11.421 14.9489 11.5 14.75 11.5H11.75C11.5511 11.5 11.3603 11.421 11.2197 11.2803C11.079 11.1397 11 10.9489 11 10.75C11 10.5511 11.079 10.3603 11.2197 10.2197C11.3603 10.079 11.5511 10 11.75 10H12V3.365L8.38625 9.1475C8.31886 9.25548 8.22509 9.34453 8.11378 9.40627C8.00247 9.46801 7.87728 9.50041 7.75 9.50041C7.62272 9.50041 7.49753 9.46801 7.38622 9.40627C7.27491 9.34453 7.18114 9.25548 7.11375 9.1475L3.5 3.365V10H3.75C3.94891 10 4.13968 10.079 4.28033 10.2197C4.42098 10.3603 4.5 10.5511 4.5 10.75ZM18.75 7.5H27.75C27.9489 7.5 28.1397 7.42098 28.2803 7.28033C28.421 7.13968 28.5 6.94891 28.5 6.75C28.5 6.55109 28.421 6.36032 28.2803 6.21967C28.1397 6.07902 27.9489 6 27.75 6H18.75C18.5511 6 18.3603 6.07902 18.2197 6.21967C18.079 6.36032 18 6.55109 18 6.75C18 6.94891 18.079 7.13968 18.2197 7.28033C18.3603 7.42098 18.5511 7.5 18.75 7.5ZM27.75 10H18.75C18.5511 10 18.3603 10.079 18.2197 10.2197C18.079 10.3603 18 10.5511 18 10.75C18 10.9489 18.079 11.1397 18.2197 11.2803C18.3603 11.421 18.5511 11.5 18.75 11.5H27.75C27.9489 11.5 28.1397 11.421 28.2803 11.2803C28.421 11.1397 28.5 10.9489 28.5 10.75C28.5 10.5511 28.421 10.3603 28.2803 10.2197C28.1397 10.079 27.9489 10 27.75 10ZM27.75 14H6.75C6.55109 14 6.36032 14.079 6.21967 14.2197C6.07902 14.3603 6 14.5511 6 14.75C6 14.9489 6.07902 15.1397 6.21967 15.2803C6.36032 15.421 6.55109 15.5 6.75 15.5H27.75C27.9489 15.5 28.1397 15.421 28.2803 15.2803C28.421 15.1397 28.5 14.9489 28.5 14.75C28.5 14.5511 28.421 14.3603 28.2803 14.2197C28.1397 14.079 27.9489 14 27.75 14ZM27.75 18H6.75C6.55109 18 6.36032 18.079 6.21967 18.2197C6.07902 18.3603 6 18.5511 6 18.75C6 18.9489 6.07902 19.1397 6.21967 19.2803C6.36032 19.421 6.55109 19.5 6.75 19.5H27.75C27.9489 19.5 28.1397 19.421 28.2803 19.2803C28.421 19.1397 28.5 18.9489 28.5 18.75C28.5 18.5511 28.421 18.3603 28.2803 18.2197C28.1397 18.079 27.9489 18 27.75 18Z" fill="#3D3C3C"/>
</svg>
