<svg width="24" height="24" viewBox="0 0 24 24" fill="none" xmlns="http://www.w3.org/2000/svg">
<path d="M15.53 12.53L10.53 17.53C10.3878 17.6625 10.1998 17.7346 10.0055 17.7312C9.81118 17.7277 9.62579 17.649 9.48838 17.5116C9.35097 17.3742 9.27225 17.1888 9.26882 16.9945C9.2654 16.8002 9.33752 16.6122 9.47 16.47L13.1888 12.75H1C0.801088 12.75 0.610322 12.671 0.46967 12.5303C0.329018 12.3897 0.25 12.1989 0.25 12C0.25 11.8011 0.329018 11.6103 0.46967 11.4697C0.610322 11.329 0.801088 11.25 1 11.25H13.1888L9.47 7.53C9.33752 7.38783 9.2654 7.19978 9.26882 7.00548C9.27225 6.81118 9.35097 6.62579 9.48838 6.48838C9.62579 6.35097 9.81118 6.27225 10.0055 6.26882C10.1998 6.2654 10.3878 6.33752 10.53 6.47L15.53 11.47C15.6705 11.6106 15.7493 11.8012 15.7493 12C15.7493 12.1988 15.6705 12.3894 15.53 12.53ZM22 0.25H15C14.8011 0.25 14.6103 0.329018 14.4697 0.46967C14.329 0.610322 14.25 0.801088 14.25 1C14.25 1.19891 14.329 1.38968 14.4697 1.53033C14.6103 1.67098 14.8011 1.75 15 1.75H22C22.0663 1.75 22.1299 1.77634 22.1768 1.82322C22.2237 1.87011 22.25 1.9337 22.25 2V22C22.25 22.0663 22.2237 22.1299 22.1768 22.1768C22.1299 22.2237 22.0663 22.25 22 22.25H15C14.8011 22.25 14.6103 22.329 14.4697 22.4697C14.329 22.6103 14.25 22.8011 14.25 23C14.25 23.1989 14.329 23.3897 14.4697 23.5303C14.6103 23.671 14.8011 23.75 15 23.75H22C22.4641 23.75 22.9092 23.5656 23.2374 23.2374C23.5656 22.9092 23.75 22.4641 23.75 22V2C23.75 1.53587 23.5656 1.09075 23.2374 0.762563C22.9092 0.434375 22.4641 0.25 22 0.25Z" fill="#3D3C3C"/>
</svg>
