<svg width="24" height="24" viewBox="0 0 24 24" fill="none" xmlns="http://www.w3.org/2000/svg">
<path d="M9.5 22.75C9.5 22.9489 9.42098 23.1397 9.28033 23.2803C9.13968 23.421 8.94891 23.5 8.75 23.5H1.75C1.28587 23.5 0.840752 23.3156 0.512563 22.9874C0.184375 22.6592 0 22.2141 0 21.75V1.75C0 1.28587 0.184375 0.840752 0.512563 0.512563C0.840752 0.184375 1.28587 0 1.75 0H8.75C8.94891 0 9.13968 0.0790175 9.28033 0.21967C9.42098 0.360322 9.5 0.551088 9.5 0.75C9.5 0.948912 9.42098 1.13968 9.28033 1.28033C9.13968 1.42098 8.94891 1.5 8.75 1.5H1.75C1.6837 1.5 1.62011 1.52634 1.57322 1.57322C1.52634 1.62011 1.5 1.6837 1.5 1.75V21.75C1.5 21.8163 1.52634 21.8799 1.57322 21.9268C1.62011 21.9737 1.6837 22 1.75 22H8.75C8.94891 22 9.13968 22.079 9.28033 22.2197C9.42098 22.3603 9.5 22.5511 9.5 22.75ZM23.28 11.22L18.28 6.22C18.1378 6.08752 17.9498 6.0154 17.7555 6.01882C17.5612 6.02225 17.3758 6.10097 17.2384 6.23838C17.101 6.37579 17.0223 6.56118 17.0188 6.75548C17.0154 6.94978 17.0875 7.13783 17.22 7.28L20.9387 11H8.75C8.55109 11 8.36032 11.079 8.21967 11.2197C8.07902 11.3603 8 11.5511 8 11.75C8 11.9489 8.07902 12.1397 8.21967 12.2803C8.36032 12.421 8.55109 12.5 8.75 12.5H20.9387L17.22 16.22C17.1463 16.2887 17.0872 16.3715 17.0462 16.4635C17.0052 16.5555 16.9832 16.6548 16.9814 16.7555C16.9796 16.8562 16.9982 16.9562 17.0359 17.0496C17.0736 17.143 17.1297 17.2278 17.201 17.299C17.2722 17.3703 17.357 17.4264 17.4504 17.4641C17.5438 17.5018 17.6438 17.5204 17.7445 17.5186C17.8452 17.5168 17.9445 17.4948 18.0365 17.4538C18.1285 17.4128 18.2113 17.3537 18.28 17.28L23.28 12.28C23.4205 12.1394 23.4993 11.9488 23.4993 11.75C23.4993 11.5512 23.4205 11.3606 23.28 11.22Z" fill="#3D3C3C"/>
</svg>
