<svg width="18" height="18" viewBox="0 0 18 18" fill="none" xmlns="http://www.w3.org/2000/svg">
<path d="M9.52453 12.7703L8.10766 16.615C8.06573 16.728 7.99022 16.8254 7.89128 16.8942C7.79234 16.9631 7.67471 16.9999 7.5542 16.9999C7.43369 16.9999 7.31606 16.9631 7.21712 16.8942C7.11818 16.8254 7.04267 16.728 7.00074 16.615L5.58387 12.7703C5.55397 12.6891 5.50681 12.6154 5.44566 12.5543C5.3845 12.4931 5.3108 12.446 5.22965 12.4161L1.38492 10.9992C1.27194 10.9573 1.1745 10.8818 1.10569 10.7828C1.03688 10.6839 1 10.5663 1 10.4457C1 10.3252 1.03688 10.2076 1.10569 10.1087C1.1745 10.0097 1.27194 9.93421 1.38492 9.89228L5.22965 8.47541C5.3108 8.44551 5.3845 8.39835 5.44566 8.3372C5.50681 8.27604 5.55397 8.20234 5.58387 8.12119L7.00074 4.27646C7.04267 4.16348 7.11818 4.06604 7.21712 3.99723C7.31606 3.92842 7.43369 3.89154 7.5542 3.89154C7.67471 3.89154 7.79234 3.92842 7.89128 3.99723C7.99022 4.06604 8.06573 4.16348 8.10766 4.27646L9.52453 8.12119C9.55443 8.20234 9.60159 8.27604 9.66274 8.3372C9.7239 8.39835 9.79759 8.44551 9.87875 8.47541L13.7235 9.89228C13.8365 9.93421 13.9339 10.0097 14.0027 10.1087C14.0715 10.2076 14.1084 10.3252 14.1084 10.4457C14.1084 10.5663 14.0715 10.6839 14.0027 10.7828C13.9339 10.8818 13.8365 10.9573 13.7235 10.9992L9.87875 12.4161C9.79759 12.446 9.7239 12.4931 9.66274 12.5543C9.60159 12.6154 9.55443 12.6891 9.52453 12.7703V12.7703Z" stroke="#676767" stroke-width="1.5" stroke-linecap="round" stroke-linejoin="round"/>
<path d="M12.2771 1V4.54217" stroke="#676767" stroke-width="1.5" stroke-linecap="round" stroke-linejoin="round"/>
<path d="M14.0481 2.77106H10.506" stroke="#676767" stroke-width="1.5" stroke-linecap="round" stroke-linejoin="round"/>
<path d="M15.8193 5.13251V7.49395" stroke="#676767" stroke-width="1.5" stroke-linecap="round" stroke-linejoin="round"/>
<path d="M17 6.31323H14.6385" stroke="#676767" stroke-width="1.5" stroke-linecap="round" stroke-linejoin="round"/>
</svg>
