<svg width="40" height="40" viewBox="0 0 40 40" fill="none" xmlns="http://www.w3.org/2000/svg">
<rect width="40" height="40" rx="8" fill="white"/>
<path d="M20 13C20 11.9391 20.4214 10.9217 21.1716 10.1716C21.9217 9.42143 22.9391 9 24 9H32C32.2652 9 32.5196 9.10536 32.7071 9.29289C32.8946 9.48043 33 9.73478 33 10V26C33 26.2652 32.8946 26.5196 32.7071 26.7071C32.5196 26.8946 32.2652 27 32 27H24C22.9391 27 21.9217 27.4214 21.1716 28.1716C20.4214 28.9217 20 29.9391 20 31" stroke="#3D3C3C" stroke-width="1.5" stroke-linecap="round" stroke-linejoin="round"/>
<path d="M7 26C7 26.2652 7.10536 26.5196 7.29289 26.7071C7.48043 26.8946 7.73478 27 8 27H16C17.0609 27 18.0783 27.4214 18.8284 28.1716C19.5786 28.9217 20 29.9391 20 31V13C20 11.9391 19.5786 10.9217 18.8284 10.1716C18.0783 9.42143 17.0609 9 16 9H8C7.73478 9 7.48043 9.10536 7.29289 9.29289C7.10536 9.48043 7 9.73478 7 10V26Z" stroke="#3D3C3C" stroke-width="1.5" stroke-linecap="round" stroke-linejoin="round"/>
</svg>
